<?xml version="1.0" encoding="UTF-8" standalone="no"?>
<!DOCTYPE svg PUBLIC "-//W3C//DTD SVG 1.1//EN" "http://www.w3.org/Graphics/SVG/1.1/DTD/svg11.dtd">
<svg width="100%" height="100%" viewBox="0 0 660 629" version="1.1" xmlns="http://www.w3.org/2000/svg" xmlns:xlink="http://www.w3.org/1999/xlink" xml:space="preserve" xmlns:serif="http://www.serif.com/" style="fill-rule:evenodd;clip-rule:evenodd;stroke-linejoin:round;stroke-miterlimit:2;">
    <g transform="matrix(1,0,0,1,-231,-246.632)">
        <path d="M570.497,252.536L664.268,442.536C665.811,445.662 668.793,447.829 672.242,448.33L881.92,478.798C890.607,480.061 894.076,490.736 887.79,496.863L736.066,644.758C733.569,647.191 732.43,650.696 733.02,654.132L768.837,862.963C770.321,871.614 761.24,878.213 753.47,874.128L565.928,775.531C562.843,773.909 559.157,773.909 556.072,775.531L368.53,874.128C360.76,878.213 351.679,871.614 353.163,862.963L388.98,654.132C389.569,650.696 388.43,647.191 385.934,644.758L234.21,496.863C227.924,490.736 231.393,480.061 240.08,478.798L449.757,448.33C453.207,447.829 456.189,445.662 457.732,442.536L551.503,252.536C555.387,244.664 566.612,244.664 570.497,252.536Z" style="fill:rgb(243,204,48);fill-rule:nonzero;"/>
        <path d="M561,296.423L477.437,458.28C473.053,466.771 464.64,472.436 455.125,473.304L273.692,489.866L465.38,498.83C477.555,499.399 488.697,492.02 492.923,480.588L561,296.423Z" style="fill:rgb(247,219,94);fill-rule:nonzero;"/>
        <path d="M357.284,838.933L353.163,862.963C351.679,871.614 360.76,878.213 368.53,874.128L556.072,775.531C559.157,773.909 562.843,773.909 565.928,775.531L753.47,874.128C761.24,878.213 770.321,871.614 768.837,862.963L733.02,654.132C732.431,650.696 733.57,647.191 736.065,644.758L887.79,496.863C894.076,490.736 890.607,480.061 881.92,478.798L811.689,468.593C698.099,672.446 524.163,779.774 357.284,838.933Z" style="fill:rgb(237,189,49);fill-rule:nonzero;"/>
    </g>
</svg>
